<?xml version="1.0" encoding="iso-8859-1"?>
<!-- Generator: Adobe Illustrator 22.0.1, SVG Export Plug-In . SVG Version: 6.00 Build 0)  -->
<svg version="1.1" id="Layer_1_1_" xmlns="http://www.w3.org/2000/svg" xmlns:xlink="http://www.w3.org/1999/xlink" x="0px" y="0px"
	 viewBox="0 0 64 64" style="enable-background:new 0 0 64 64;" xml:space="preserve">
<path d="M40,51c0,6.065,4.935,11,11,11s11-4.935,11-11s-4.935-11-11-11S40,44.935,40,51z M60,51c0,4.962-4.037,9-9,9s-9-4.038-9-9
	s4.037-9,9-9S60,46.038,60,51z"/>
<path d="M50,43v2h-0.5c-1.93,0-3.5,1.57-3.5,3.5s1.57,3.5,3.5,3.5h3c0.827,0,1.5,0.673,1.5,1.5S53.327,55,52.5,55H47v2h3v2h2v-2h0.5
	c1.93,0,3.5-1.57,3.5-3.5S54.43,50,52.5,50h-3c-0.827,0-1.5-0.673-1.5-1.5s0.673-1.5,1.5-1.5H55v-2h-3v-2H50z"/>
<path d="M15.036,44.266C15.155,44.7,15.55,45,16,45h23c0.459,0,0.858-0.312,0.97-0.757l5-20c0.075-0.299,0.008-0.615-0.182-0.858
	S44.308,23,44,23H14v2h28.719l-4.5,18H16.762L8.964,14.734C8.845,14.3,8.45,14,8,14H2v2h5.238L15.036,44.266z"/>
<rect x="17" y="47" width="21" height="2"/>
<path d="M21,58c2.206,0,4-1.794,4-4s-1.794-4-4-4s-4,1.794-4,4S18.794,58,21,58z M21,52c1.103,0,2,0.897,2,2s-0.897,2-2,2
	s-2-0.897-2-2S19.897,52,21,52z"/>
<path d="M29,54c0,2.206,1.794,4,4,4s4-1.794,4-4s-1.794-4-4-4S29,51.794,29,54z M35,54c0,1.103-0.897,2-2,2s-2-0.897-2-2
	s0.897-2,2-2S35,52.897,35,54z"/>
<path d="M31,2h-6c-0.553,0-1,0.448-1,1v9h-2c-0.391,0-0.745,0.228-0.908,0.582c-0.163,0.355-0.105,0.772,0.149,1.069l6,7
	C27.431,20.873,27.708,21,28,21s0.569-0.127,0.759-0.349l6-7c0.255-0.296,0.312-0.714,0.149-1.069C34.745,12.228,34.391,12,34,12h-2
	V3C32,2.448,31.553,2,31,2z M28,18.463L24.174,14H25c0.553,0,1-0.448,1-1V4h4v9c0,0.552,0.447,1,1,1h0.826L28,18.463z"/>
<rect x="16" y="28" width="18" height="2"/>
<rect x="21" y="33" width="17" height="2"/>
<rect x="18" y="38" width="17" height="2"/>
<rect x="58" y="2" width="2" height="2"/>
<rect x="58" y="6" width="2" height="2"/>
<rect x="60" y="4" width="2" height="2"/>
<rect x="56" y="4" width="2" height="2"/>
</svg>
