<?xml version="1.0" encoding="UTF-8" standalone="no"?> <svg width="64" height="64" viewBox="0 0 64 64" fill="none" xmlns="http://www.w3.org/2000/svg">
<path d="M32 42C32.2652 42 32.5196 42.1054 32.7071 42.2929C32.8946 42.4804 33 42.7348 33 43H35C34.9983 42.3811 34.8051 41.7778 34.4471 41.2729C34.089 40.7681 33.5835 40.3863 33 40.18V39H31V40.18C30.3386 40.42 29.7826 40.8848 29.4292 41.4931C29.0758 42.1015 28.9475 42.8147 29.0666 43.5081C29.1857 44.2015 29.5448 44.831 30.081 45.2865C30.6172 45.742 31.2965 45.9945 32 46C32.1978 46 32.3911 46.0586 32.5556 46.1685C32.72 46.2784 32.8482 46.4346 32.9239 46.6173C32.9996 46.8 33.0194 47.0011 32.9808 47.1951C32.9422 47.3891 32.847 47.5673 32.7071 47.7071C32.5673 47.847 32.3891 47.9422 32.1951 47.9808C32.0011 48.0194 31.8 47.9996 31.6173 47.9239C31.4346 47.8482 31.2784 47.72 31.1685 47.5556C31.0586 47.3911 31 47.1978 31 47H29C29.0017 47.6189 29.1949 48.2222 29.5529 48.7271C29.911 49.2319 30.4165 49.6137 31 49.82V51H33V49.82C33.6614 49.58 34.2174 49.1152 34.5708 48.5069C34.9242 47.8985 35.0525 47.1853 34.9334 46.4919C34.8143 45.7985 34.4552 45.169 33.919 44.7135C33.3828 44.258 32.7035 44.0055 32 44C31.7348 44 31.4804 43.8946 31.2929 43.7071C31.1054 43.5196 31 43.2652 31 43C31 42.7348 31.1054 42.4804 31.2929 42.2929C31.4804 42.1054 31.7348 42 32 42Z" fill="black"/>
<path d="M49.1697 11.5C50.0897 4.80004 54.4797 3.01004 54.6697 2.94004C54.8915 2.85956 55.0777 2.70324 55.1954 2.49873C55.313 2.29421 55.3546 2.05466 55.3127 1.82245C55.2708 1.59024 55.1482 1.38033 54.9664 1.22983C54.7847 1.07932 54.5556 0.997932 54.3197 1.00004H35.9997C35.7675 1.00178 35.5433 1.08421 35.3653 1.2332C35.1873 1.38219 35.0667 1.58846 35.0241 1.81665C34.9815 2.04483 35.0197 2.28071 35.132 2.48385C35.2443 2.68699 35.4238 2.84474 35.6397 2.93004C35.8397 3.01004 40.1997 4.79004 41.1397 11.43C37.6522 12.209 34.4726 14.0006 31.9997 16.58C29.6003 14.0751 26.532 12.3118 23.1597 11.5C24.0797 4.80004 28.4697 3.01004 28.6597 2.94004C28.8806 2.85984 29.0663 2.70435 29.184 2.50088C29.3018 2.29741 29.3441 2.05896 29.3035 1.82741C29.2629 1.59586 29.142 1.38601 28.9621 1.23471C28.7822 1.0834 28.5547 1.00032 28.3197 1.00004H9.99966C9.76754 1.00178 9.54327 1.08421 9.36527 1.2332C9.18728 1.38219 9.06666 1.58846 9.0241 1.81665C8.98154 2.04483 9.01968 2.28071 9.13199 2.48385C9.2443 2.68699 9.42378 2.84474 9.63966 2.93004C9.83966 3.01004 14.1997 4.79004 15.1397 11.43C11.2342 12.298 7.72928 14.4424 5.1784 17.5244C2.62752 20.6064 1.1761 24.4504 1.05339 28.4492C0.930689 32.448 2.14369 36.3738 4.5008 39.6064C6.85792 42.839 10.2248 45.1942 14.0697 46.3C14.4661 50.7819 16.5266 54.9528 19.8454 57.9909C23.1641 61.0291 27.5003 62.7141 31.9997 62.7141C36.499 62.7141 40.8352 61.0291 44.1539 57.9909C47.4727 54.9528 49.5332 50.7819 49.9297 46.3C53.7491 45.2023 57.0979 42.8715 59.4538 39.671C61.8097 36.4706 63.0402 32.5804 62.9535 28.6073C62.8667 24.6342 61.4675 20.8015 58.9741 17.7069C56.4808 14.6124 53.0334 12.4299 49.1697 11.5V11.5ZM13.9997 44.21C10.5917 43.0984 7.65576 40.8746 5.6626 37.8952C3.66943 34.9158 2.73452 31.3533 3.00777 27.7791C3.28103 24.2049 4.74662 20.8259 7.16954 18.1841C9.59246 15.5423 12.8323 13.7907 16.3697 13.21C16.6045 13.1696 16.8171 13.0466 16.9692 12.8632C17.1214 12.6799 17.2031 12.4483 17.1997 12.21H21.0597C21.0554 12.4454 21.1343 12.6747 21.2824 12.8576C21.4306 13.0406 21.6385 13.1654 21.8697 13.21C24.7265 13.752 27.3816 15.0623 29.5497 17H22.9997C22.7675 17.0018 22.5433 17.0842 22.3653 17.2332C22.1873 17.3822 22.0667 17.5885 22.0241 17.8166C21.9815 18.0448 22.0197 18.2807 22.132 18.4839C22.2443 18.687 22.4238 18.8447 22.6397 18.93C24.0812 19.6017 25.3045 20.6656 26.1697 22C25.1284 20.9383 23.8634 20.1221 22.4669 19.611C21.0703 19.0999 19.5773 18.9067 18.0967 19.0455C16.616 19.1843 15.185 19.6516 13.9077 20.4134C12.6305 21.1751 11.5393 22.2122 10.7135 23.449C9.88766 24.6858 9.34812 26.0912 9.13411 27.5628C8.92011 29.0345 9.03703 30.5354 9.47638 31.9561C9.91572 33.3769 10.6664 34.6818 11.6738 35.7758C12.6812 36.8698 13.9199 37.7253 15.2997 38.28C14.5348 40.1692 14.0953 42.1742 13.9997 44.21V44.21ZM18.9997 28C18.8019 28 18.6085 27.9414 18.4441 27.8315C18.2796 27.7216 18.1515 27.5654 18.0758 27.3827C18.0001 27.2 17.9803 26.9989 18.0189 26.8049C18.0575 26.611 18.1527 26.4328 18.2926 26.2929C18.4324 26.1531 18.6106 26.0578 18.8046 26.0193C18.9985 25.9807 19.1996 26.0005 19.3823 26.0762C19.5651 26.1518 19.7212 26.28 19.8311 26.4445C19.941 26.6089 19.9997 26.8023 19.9997 27H21.9997C21.9979 26.3811 21.8048 25.7778 21.4467 25.273C21.0887 24.7681 20.5832 24.3864 19.9997 24.18V23H17.9997V24.18C17.3383 24.42 16.7823 24.8848 16.4289 25.4932C16.0755 26.1015 15.9471 26.8147 16.0663 27.5082C16.1854 28.2016 16.5445 28.831 17.0807 29.2865C17.6169 29.742 18.2961 29.9946 18.9997 30C19.1974 30 19.3908 30.0587 19.5552 30.1686C19.7197 30.2785 19.8479 30.4346 19.9235 30.6174C19.9992 30.8001 20.019 31.0012 19.9804 31.1951C19.9419 31.3891 19.8466 31.5673 19.7068 31.7071C19.5669 31.847 19.3887 31.9422 19.1947 31.9808C19.0008 32.0194 18.7997 31.9996 18.617 31.9239C18.4342 31.8482 18.2781 31.7201 18.1682 31.5556C18.0583 31.3912 17.9997 31.1978 17.9997 31H15.9997C16.0007 31.6032 16.1834 32.192 16.5242 32.6897C16.8649 33.1875 17.3477 33.5709 17.9097 33.79C17.2375 34.6242 16.648 35.5218 16.1497 36.47C14.8369 35.9683 13.6795 35.1295 12.7939 34.0382C11.9084 32.947 11.3259 31.6417 11.1052 30.2537C10.8845 28.8658 11.0333 27.4442 11.5366 26.132C12.04 24.8198 12.8801 23.6634 13.9725 22.7792C15.0648 21.895 16.3709 21.3141 17.7591 21.0951C19.1473 20.876 20.5687 21.0266 21.8803 21.5315C23.1918 22.0365 24.3472 22.878 25.2301 23.9714C26.113 25.0648 26.6923 26.3716 26.9097 27.76C25.1121 28.2841 23.408 29.0872 21.8597 30.14C21.6753 29.5239 21.2978 28.9833 20.7829 28.598C20.2679 28.2127 19.6428 28.0031 18.9997 28V28ZM31.9997 54C30.2196 54 28.4796 53.4722 26.9995 52.4833C25.5195 51.4943 24.3659 50.0887 23.6847 48.4442C23.0036 46.7997 22.8253 44.9901 23.1726 43.2442C23.5199 41.4984 24.377 39.8948 25.6357 38.6361C26.8944 37.3774 28.498 36.5202 30.2438 36.173C31.9897 35.8257 33.7993 36.0039 35.4438 36.6851C37.0883 37.3663 38.494 38.5199 39.4829 39.9999C40.4718 41.4799 40.9997 43.22 40.9997 45C40.9997 47.387 40.0514 49.6762 38.3636 51.364C36.6758 53.0518 34.3866 54 31.9997 54V54ZM46.0797 33.79C46.7273 33.5341 47.2657 33.0609 47.6027 32.4515C47.9396 31.8421 48.054 31.1344 47.9263 30.4499C47.7986 29.7653 47.4368 29.1465 46.9028 28.6995C46.3688 28.2525 45.696 28.0053 44.9997 28C44.8019 28 44.6085 27.9414 44.4441 27.8315C44.2796 27.7216 44.1515 27.5654 44.0758 27.3827C44.0001 27.2 43.9803 26.9989 44.0189 26.8049C44.0575 26.611 44.1527 26.4328 44.2925 26.2929C44.4324 26.1531 44.6106 26.0578 44.8046 26.0193C44.9985 25.9807 45.1996 26.0005 45.3823 26.0762C45.5651 26.1518 45.7212 26.28 45.8311 26.4445C45.941 26.6089 45.9997 26.8023 45.9997 27H47.9997C47.9979 26.3811 47.8048 25.7778 47.4467 25.273C47.0887 24.7681 46.5832 24.3864 45.9997 24.18V23H43.9997V24.18C43.3383 24.42 42.7823 24.8848 42.4289 25.4932C42.0755 26.1015 41.9471 26.8147 42.0663 27.5082C42.1854 28.2016 42.5445 28.831 43.0807 29.2865C43.6169 29.742 44.2961 29.9946 44.9997 30C45.1974 30 45.3908 30.0587 45.5552 30.1686C45.7197 30.2785 45.8478 30.4346 45.9235 30.6174C45.9992 30.8001 46.019 31.0012 45.9804 31.1951C45.9419 31.3891 45.8466 31.5673 45.7068 31.7071C45.5669 31.847 45.3887 31.9422 45.1947 31.9808C45.0008 32.0194 44.7997 31.9996 44.617 31.9239C44.4342 31.8482 44.2781 31.7201 44.1682 31.5556C44.0583 31.3912 43.9997 31.1978 43.9997 31H43.2897C41.4558 29.5234 39.349 28.4225 37.0897 27.76C37.3088 26.3724 37.8895 25.0669 38.7733 23.9749C39.6572 22.8829 40.813 22.0429 42.1245 21.5394C43.436 21.0359 44.857 20.8866 46.2445 21.1066C47.6321 21.3267 48.9372 21.9082 50.0286 22.7927C51.1201 23.6772 51.9594 24.8335 52.462 26.1454C52.9647 27.4572 53.1131 28.8783 52.8922 30.2657C52.6714 31.6531 52.0891 32.9578 51.2039 34.0487C50.3187 35.1396 49.1618 35.9782 47.8497 36.48C47.342 35.5318 46.7495 34.6315 46.0797 33.79V33.79ZM49.9997 44.21C49.9104 42.1786 49.4776 40.1769 48.7197 38.29C50.0539 37.7635 51.2592 36.9561 52.2539 35.9227C53.2485 34.8892 54.0092 33.6538 54.4843 32.3005C54.9594 30.9471 55.1378 29.5073 55.0074 28.0789C54.877 26.6505 54.4408 25.2668 53.7284 24.0219C53.0161 22.7769 52.0443 21.6998 50.8789 20.8635C49.7135 20.0273 48.3819 19.4515 46.9744 19.1753C45.5669 18.8991 44.1164 18.9289 42.7215 19.2628C41.3265 19.5966 40.0197 20.2266 38.8897 21.11C39.6498 20.1831 40.6107 19.4411 41.6997 18.94C41.9245 18.8591 42.1128 18.7003 42.2307 18.4925C42.3486 18.2846 42.3881 18.0414 42.3422 17.807C42.2962 17.5725 42.1679 17.3622 41.9803 17.2142C41.7928 17.0662 41.5584 16.9902 41.3197 17H34.4597C36.7025 15.0268 39.4529 13.7208 42.3997 13.23C42.6507 13.1905 42.8772 13.0568 43.0333 12.8562C43.1893 12.6556 43.2631 12.4031 43.2397 12.15V11.96H47.1397V12.18C47.1209 12.4269 47.1943 12.6719 47.3458 12.8677C47.4973 13.0635 47.716 13.1962 47.9597 13.24C51.4676 13.879 54.6615 15.6713 57.0346 18.3326C59.4076 20.9938 60.8237 24.3715 61.0581 27.9294C61.2924 31.4873 60.3316 35.0216 58.3282 37.9711C56.3247 40.9207 53.3934 43.1165 49.9997 44.21V44.21Z" fill="black"/>
</svg>
